<?xml version="1.0" encoding="utf-8"?>
<!-- Generator: Adobe Illustrator 23.1.0, SVG Export Plug-In . SVG Version: 6.00 Build 0)  -->
<svg version="1.1" id="Слой_1" xmlns="http://www.w3.org/2000/svg" xmlns:xlink="http://www.w3.org/1999/xlink" x="0px" y="0px"
	 viewBox="0 0 1982.6 1872.5" style="enable-background:new 0 0 1982.6 1872.5;" xml:space="preserve">
<style type="text/css">
	.st0{fill:#727272;}
	.st1{fill:#A1A1A1;}
	.st2{fill-rule:evenodd;clip-rule:evenodd;fill:#FFCC33;}
	.st3{fill:#DA7E03;}
	.st4{clip-path:url(#SVGID_15_);}
	.st5{clip-path:url(#SVGID_27_);}
	.st6{clip-path:url(#SVGID_39_);}
	.st7{clip-path:url(#SVGID_52_);}
	.st8{clip-path:url(#SVGID_58_);}
	.st9{clip-path:url(#SVGID_64_);}
	.st10{clip-path:url(#SVGID_70_);}
	.st11{clip-path:url(#SVGID_76_);}
	.st12{clip-path:url(#SVGID_81_);}
	.st13{clip-path:url(#SVGID_82_);}
	.st14{fill:#0DBC22;}
	.st15{opacity:0.82;}
	.st16{fill:#FFFFFF;}
</style>
<g id="line">
	<g>
		<path id="SVGID_1_" class="st0" d="M1161.3,1696.2l3.9-25.2c-85.1-13.1-306.2-57.7-396.6-72.9c-39.3-6.6-86.8-16.4-123.2-32.3
			c-18.2-7.9-33.5-17.2-43.6-27.2c-10.3-10.1-15.5-19.8-17.1-31.7c-1.5-11.8-2.2-22.3-2.2-32.1c-0.2-45.9,15.6-82.3,40.3-164.4
			c7.8-26.3,12.3-51.8,12.3-75.7c-0.1-26.7-5.5-52.1-21-72.5c-15.5-20.6-41.7-32.4-70.7-32.1c-14.6,0-30.2,2.5-47.1,7.5l-3,0.9
			l-2.7,1.6c-69.7,41-124.8,55.7-161.8,55.5c-34.1-0.1-51.1-11.5-57.7-22.2l-1-1.5l1,1.5c-13.7-22.1-19.3-43.8-19.4-81.4
			c0-22.4,2.3-49.8,6.2-84.1c2.2-19.5,6.3-32.7,10.6-41.2c6.9-12.4,12.5-16,23.8-20.1c11.3-3.7,28.4-4.9,49-6.2
			c19.5-1.3,40.4-8.3,55.9-24.7c15.5-16.4,23.4-40.1,23.3-67.9c-0.2-43.7-17.3-100.6-58.2-180.5l-22.7,11.7l23.1-10.8
			c-32-68.7-52.7-109.6-65-135.5c-12.5-26.4-14.8-35.3-14.6-41.3v-0.2l0,0v0c-0.1-8.6,4.2-51,29.4-90.9
			c25.5-40,69.7-80.2,158.6-93.1l-3.5-25.3l0.4,25.5c25.1-0.4,50.2-0.6,74.1-0.6c38,0,73.4,0.4,101.8,0.8
			c28.5,0.4,49.8,0.8,60.8,0.8c2.3,0,4,0,5.7-0.1l-0.8-25.5l0.2,25.5c2.7,0,5.3,0,7.8,0c22.2,0,38.1,0.6,51.3,1.3
			c13.2,0.6,23.8,1.4,35.2,1.4c13,0,26.6-1,43.8-4c48.1-8.3,118.3-26.7,156.1-41.4l0.9-0.4l0.9-0.4c24.4-11.9,80.4-30,138.7-29.8
			c61.1,0.3,122.4,17.9,165.8,76.8c47.9,65.2,72.6,105.2,85.2,132.5c12.6,27.5,14.2,41.4,16.8,63.4c1.1,9.3,2.3,24.9,2.3,43.8
			c0.1,32-3.8,73.5-17.3,109.9c-13.8,36.6-35.7,67.1-73.2,84.3c-57.5,26.2-91.2,36.4-118.7,44.5c-27.4,8-51,14.4-81.3,31.5
			c-20.8,12.5-31.9,32.9-40.8,56.6c-8.5,23.9-13.3,52.1-13.4,81.6c0.1,33.8,6.4,69.4,23.2,100.9c16.6,31.4,45.1,58.5,85.1,70.5
			l2.8,0.9l2.9,0.2c7,0.4,13.9,0.7,20.7,0.7c84.3,0.3,151.4-35.1,223.1-94.4l1-0.8l0.9-0.9c18.1-19.3,64.2-33.5,108.3-33
			c25.1,0,49.5,4.1,66.9,11.3c17.8,7.2,26.5,16.5,28.4,23.5c15.3,47.8,20.5,70.9,24.7,87.6c3.9,16.5,8.3,30,18.6,47.4
			c8.3,14.3,30.5,51.1,50.7,96c20.3,44.6,37.7,97.3,37.5,138.5c0,12.4-1.5,23.6-4.5,33.4l24.4,7.4l-24-8.7
			c-0.6,2.6-11.6,21.5-29.1,42.8c-53.2,66.1-170.5,172.2-316.7,187.6l2.8,25.3l-2.2-25.4c-94.3,8-136.4,11.5-162.1,11.5h0
			c-27.6,0-39-3.7-87.8-11.3L1161.3,1696.2l-3.9,25.2c45.9,7,61.7,11.8,95.6,11.8h0c30.1,0,72-3.6,166.4-11.7l0.3,0l0.3,0
			c111.7-12.2,204.4-68.2,271-124.9c33.3-28.4,60.2-57.1,79.8-81.3c19.8-24.8,31.7-42.6,37.4-57.4l0.2-0.6l0.2-0.7
			c4.7-15.6,6.7-31.8,6.7-48.2c-0.2-54.4-20.5-111.3-42-159.4c-21.5-47.8-45.1-86.9-53-100.5c-8.3-14.7-9-17.9-13.2-34.2
			c-4-16.1-9.9-41.9-25.6-90.8c-9.2-27.9-32.6-44.9-57.8-55.2c-25.7-10.4-55.6-15-86.1-15c-53.2,0.5-108.7,13.2-144.4,48l18.1,18
			l-16.2-19.7c-68.8,56.2-121.2,82.6-190.7,82.8c-5.7,0-11.5-0.2-17.5-0.6l-1.6,25.5l7.4-24.4c-26.5-8.2-43.1-24-55-45.7
			c-11.7-21.7-17.2-49.5-17.1-76.8c0-23.7,4.1-47,10.4-64.5c5.9-17.7,15.4-28.7,17.8-29.4c25.2-14.2,41.9-18.6,70.4-27
			c28.3-8.3,65.9-19.8,125.6-47c52.7-23.9,83.4-68.2,99.9-113c16.6-45.1,20.5-91.8,20.5-127.6c0-21.1-1.4-38.5-2.6-49.5
			c-2.4-22.3-5.8-46.6-21.2-79.2c-15.3-32.7-41.6-74.7-90.4-141.2c-55.1-75.2-136.4-97.9-206.9-97.6c-68.6,0.2-129,19.7-160.9,34.9
			l11.1,23l-9.3-23.7C953.5,231,882.6,249.8,839,257.1c-15.1,2.5-24.8,3.2-35.2,3.3c-9.1,0-19-0.6-32.7-1.3
			c-13.6-0.7-30.7-1.4-53.8-1.4c-2.7,0-5.4,0-8.2,0h-0.3l-0.3,0c-0.6,0-2.1,0-4.1,0c-9.8,0-31.5-0.4-60-0.8
			c-28.5-0.4-64.1-0.8-102.5-0.8c-24.2,0-49.6,0.2-75,0.6l-1.6,0l-1.5,0.2C361.3,271,300.6,322.3,269,373.5
			c-31.9,51.4-36.9,100.2-37.2,117.5v0c0,0.2,0,0.4,0,0.6c0.1,19.9,7,36.3,19.5,63c12.8,27.2,33.1,67.1,64.9,135.3l0.2,0.5l0.2,0.4
			c39.2,75.9,52.8,127.5,52.6,157.2c-0.1,19.2-4.8,28-9.4,32.9c-4.6,4.9-11.5,8-22.3,8.8c-26.3,2.1-54.3,1.9-81.4,17.6
			c-13.3,7.9-25.1,20.3-33.2,36.2c-8.2,15.9-13.2,35.1-16,58.7l0,0c-4,35.1-6.5,64.2-6.5,89.9l0,0c-0.2,42.6,7.5,77.5,27.3,108.6
			l0,0c19,29.9,55.7,46.1,100.9,46c49.9-0.1,112.4-18.5,187.6-62.6l-12.9-22l7.1,24.5c13.2-3.9,24.2-5.4,32.8-5.4
			c17.4,0.4,24.3,4.9,30.3,12.2c6,7.5,10.5,21.6,10.4,41.3c0,17.4-3.4,38.6-10.2,61.1c-23.3,78.8-42.2,119.9-42.4,179
			c0,12.2,0.8,24.9,2.6,38.5c3.1,24.9,15.7,46,32.2,61.8c50,46.9,132.5,62.1,193.8,73.1c88.9,15,309.7,59.6,397.4,73.1
			L1161.3,1696.2L1161.3,1696.2L1161.3,1696.2z"/>
	</g>
	<g>
		<path id="SVGID_2_" class="st1" d="M1161.3,1696.2l3-19.3c-85.4-13.1-306.4-57.7-396.7-72.9c-39.5-6.6-87.3-16.5-124.5-32.7
			c-18.6-8.1-34.5-17.7-45.4-28.3c-11-10.8-17.2-21.8-18.9-35.2c-1.5-12-2.2-22.8-2.2-32.8c-0.2-47.5,16-84.4,40.5-166.1
			c7.7-25.8,12-50.9,12.1-74c0-25.8-5.3-49.9-19.8-68.8c-14.4-19.1-38.4-30-66-29.7c-13.9,0-29,2.4-45.4,7.2l-2.3,0.7l-2.1,1.2
			c-70.4,41.4-126.3,56.4-164.9,56.4c-35.4-0.1-54.7-12-62.8-24.9c-14.4-23.2-20.2-46.4-20.4-84.6c0-22.8,2.3-50.4,6.3-84.8
			c5-40.5,15.6-54.1,27.6-61.5c12.4-7.8,33.8-9.7,61.3-11.3c18.5-1.2,37.7-7.8,51.9-22.8c14.3-15.1,21.7-37,21.6-63.8
			c-0.2-42.1-16.8-98.3-57.5-177.8l-17.3,8.9L357,671c-32-68.7-52.6-109.4-65-135.5c-12.5-26.4-15.3-36.2-15.2-43.8
			c0-0.1,0-0.2,0-0.3l0,0l0,0c0-9.7,4.3-52.8,30.3-94c26.2-41.4,72.3-82.9,162.9-95.8l-2.7-19.3l0.3,19.5
			c25.1-0.4,50.2-0.6,74.3-0.6c38.1,0,73.4,0.4,101.9,0.8c28.5,0.4,49.9,0.8,60.7,0.8c2.2,0,4,0,5.5-0.1l-0.6-19.5l0.1,19.5
			c2.7,0,5.3,0,7.9,0c22.3,0,38.4,0.6,51.6,1.3c13.2,0.6,23.8,1.3,34.9,1.4c12.7,0,25.8-1,42.8-3.9c47.6-8.2,117.8-26.6,154.9-41.1
			l0.7-0.3l0.7-0.3c25.2-12.3,81.8-30.6,141.3-30.4c62.2,0.2,125.9,18.5,170.7,79.3c48,65.4,72.8,105.6,85.8,133.5
			c12.9,28.1,14.7,43.2,17.3,65.3c1.1,9.5,2.4,25.3,2.3,44.4c0,32.4-3.8,74.5-17.7,112c-14.1,37.6-37.1,69.7-76.3,87.7
			c-57.8,26.3-91.9,36.7-119.5,44.8c-27.5,8-50.3,14.2-80,31c-18.7,11.1-29.6,30.4-38.1,53.4c-8.2,23.2-13,50.8-13,79.6
			c0,33,6.3,67.7,22.5,98c16,30.3,43.1,56.1,81.6,67.6l2.2,0.7l2.3,0.1c6.9,0.4,13.7,0.7,20.3,0.7c82.5,0.2,147.9-34.1,219.3-93.1
			l0.7-0.6l0.7-0.7c20.2-21.1,67.4-35.1,112.6-34.7c25.8,0,50.8,4.2,69.2,11.7c18.7,7.6,29.1,17.7,31.9,27.2
			c15.3,47.9,20.6,71.3,24.8,87.9c4,16.4,7.9,28.7,17.9,45.9c16.5,27.5,89.7,151,88.9,237.5c0,12.8-1.5,24.7-4.7,35.1l18.7,5.7
			l-18.3-6.7c-1.2,4.1-12.3,22.8-30.1,44.5c-53.8,66.8-172,174-320.7,189.8l2.1,19.4l-1.7-19.4c-94.3,8-136.4,11.5-162.6,11.5h0
			c-28.3,0-40.2-3.8-88.8-11.3L1161.3,1696.2l-3,19.3c46.3,7.1,61.6,11.8,94.7,11.8h0c29.6,0,71.5-3.6,165.9-11.6l0.2,0l0.2,0
			c110-12,201.8-67.3,267.8-123.5c33-28.1,59.6-56.6,79-80.5c19.5-24.3,31.3-42.3,36.4-55.7l0.2-0.5l0.2-0.5
			c4.5-14.9,6.4-30.6,6.4-46.5c-0.7-104.8-78.3-228.5-94.2-257c-8.5-15.1-9.7-19.4-13.8-35.8c-4-16.2-9.9-41.7-25.5-90.4
			c-8.3-25.5-30-41.5-54.4-51.5c-24.7-10-53.9-14.5-83.8-14.6c-52.2,0.4-106.5,13.3-140.2,46.2l13.8,13.8l-12.4-15.1
			c-69.1,56.6-123.3,84-194.5,84.2c-5.8,0-11.8-0.2-17.9-0.6l-1.2,19.5l5.7-18.7c-28.1-8.7-46.1-25.8-58.5-48.7
			c-12.3-22.8-17.9-51.6-17.8-79.6c0-24.4,4.2-48.2,10.8-66.5c6.3-18.4,16-30.5,20.6-32.6c25.8-14.5,43.3-19.2,71.7-27.5
			c28.2-8.2,65.4-19.7,124.8-46.7c50.9-23.1,80.6-65.8,96.7-109.6c16.3-44,20.1-90.1,20.2-125.5c0-20.9-1.4-38-2.6-48.8
			c-2.4-22.3-5.6-45.4-20.7-77.4c-15-32.1-41.1-73.8-89.8-140.1c-53.7-73.3-132.7-95.4-202.1-95.2c-67.4,0.1-127.3,19.4-158.3,34.3
			l8.5,17.5l-7.1-18.1c-32.2,12.8-103,31.5-147.1,38.9c-15.3,2.6-25.5,3.3-36.2,3.3c-9.3,0-19.4-0.6-33-1.3
			c-13.6-0.7-30.5-1.4-53.5-1.4c-2.6,0-5.3,0-8.1,0h-0.3l-0.3,0c-0.8,0-2.3,0-4.3,0c-10,0-31.6-0.4-60.1-0.8
			c-28.5-0.4-64-0.8-102.4-0.8c-24.2,0-49.5,0.2-74.9,0.6l-1.2,0l-1.2,0.2c-100.9,13.8-159.7,63.8-190.6,113.8
			c-31.1,50.1-36,98.1-36.2,114.4l0,0c0,0.2,0,0.4,0,0.5c0.1,18.3,6.4,33.8,19,60.5c12.8,27,33.1,67.1,64.9,135.3l0.2,0.3l0.2,0.3
			c39.4,76.4,53.4,128.6,53.2,159.9c-0.1,20.2-5.1,30.8-11,37c-5.9,6.2-14.4,9.8-26.2,10.7c-26.5,2.1-53.6,2.1-78.7,16.8
			c-25.5,15.1-41.4,44.7-46.3,90.5c-4,35-6.5,63.9-6.5,89.3c-0.1,42,7.3,75.3,26.4,105.4l0,0c17.5,27.7,51.9,43.3,95.8,43.2
			c48.4-0.1,110-18.1,184.6-61.7l-9.9-16.8l5.5,18.7c13.7-4,25.2-5.7,34.5-5.7c18.8,0.3,27.9,5.7,35.1,14.5c7.1,9,11.7,24.5,11.7,45
			c0,18.2-3.5,39.9-10.4,62.8c-23.5,79.2-42,119.7-42.2,177.3c0,11.9,0.8,24.3,2.5,37.8c2.9,23.3,14.7,43.1,30.5,58.3
			c47.7,45,129.6,60.7,190.6,71.5c89.1,15,309.9,59.6,397.3,73.1L1161.3,1696.2L1161.3,1696.2L1161.3,1696.2z"/>
	</g>
	<g>
		<defs>
			<path id="SVGID_3_" d="M1161.3,1696.2l3.9-25.2c-85.1-13.1-306.2-57.7-396.6-72.9c-39.3-6.6-86.8-16.4-123.2-32.3
				c-18.2-7.9-33.5-17.2-43.6-27.2c-10.3-10.1-15.5-19.8-17.1-31.7c-1.5-11.8-2.2-22.3-2.2-32.1c-0.2-45.9,15.6-82.3,40.3-164.4
				c7.8-26.3,12.3-51.8,12.3-75.7c-0.1-26.7-5.5-52.1-21-72.5c-15.5-20.6-41.7-32.4-70.7-32.1c-14.6,0-30.2,2.5-47.1,7.5l-3,0.9
				l-2.7,1.6c-69.7,41-124.8,55.7-161.8,55.5c-34.1-0.1-51.1-11.5-57.7-22.2l-1-1.5l1,1.5c-13.7-22.1-19.3-43.8-19.4-81.4
				c0-22.4,2.3-49.8,6.2-84.1c2.2-19.5,6.3-32.7,10.6-41.2c6.9-12.4,12.5-16,23.8-20.1c11.3-3.7,28.4-4.9,49-6.2
				c19.5-1.3,40.4-8.3,55.9-24.7c15.5-16.4,23.4-40.1,23.3-67.9c-0.2-43.7-17.3-100.6-58.2-180.5l-22.7,11.7l23.1-10.8
				c-32-68.7-52.7-109.6-65-135.5c-12.5-26.4-14.8-35.3-14.6-41.3v-0.2l0,0v0c-0.1-8.6,4.2-51,29.4-90.9
				c25.5-40,69.7-80.2,158.6-93.1l-3.5-25.3l0.4,25.5c25.1-0.4,50.2-0.6,74.1-0.6c38,0,73.4,0.4,101.8,0.8
				c28.5,0.4,49.8,0.8,60.8,0.8c2.3,0,4,0,5.7-0.1l-0.8-25.5l0.2,25.5c2.7,0,5.3,0,7.8,0c22.2,0,38.1,0.6,51.3,1.3
				c13.2,0.6,23.8,1.4,35.2,1.4c13,0,26.6-1,43.8-4c48.1-8.3,118.3-26.7,156.1-41.4l0.9-0.4l0.9-0.4c24.4-11.9,80.4-30,138.7-29.8
				c61.1,0.3,122.4,17.9,165.8,76.8c47.9,65.2,72.6,105.2,85.2,132.5c12.6,27.5,14.2,41.4,16.8,63.4c1.1,9.3,2.3,24.9,2.3,43.8
				c0.1,32-3.8,73.5-17.3,109.9c-13.8,36.6-35.7,67.1-73.2,84.3c-57.5,26.2-91.2,36.4-118.7,44.5c-27.4,8-51,14.4-81.3,31.5
				c-20.8,12.5-31.9,32.9-40.8,56.6c-8.5,23.9-13.3,52.1-13.4,81.6c0.1,33.8,6.4,69.4,23.2,100.9c16.6,31.4,45.1,58.5,85.1,70.5
				l2.8,0.9l2.9,0.2c7,0.4,13.9,0.7,20.7,0.7c84.3,0.3,151.4-35.1,223.1-94.4l1-0.8l0.9-0.9c18.1-19.3,64.2-33.5,108.3-33
				c25.1,0,49.5,4.1,66.9,11.3c17.8,7.2,26.5,16.5,28.4,23.5c15.3,47.8,20.5,70.9,24.7,87.6c3.9,16.5,8.3,30,18.6,47.4
				c8.3,14.3,30.5,51.1,50.7,96c20.3,44.6,37.7,97.3,37.5,138.5c0,12.4-1.5,23.6-4.5,33.4l24.4,7.4l-24-8.7
				c-0.6,2.6-11.6,21.5-29.1,42.8c-53.2,66.1-170.5,172.2-316.7,187.6l2.8,25.3l-2.2-25.4c-94.3,8-136.4,11.5-162.1,11.5h0
				c-27.6,0-39-3.7-87.8-11.3L1161.3,1696.2l-3.9,25.2c45.9,7,61.7,11.8,95.6,11.8h0c30.1,0,72-3.6,166.4-11.7l0.3,0l0.3,0
				c111.7-12.2,204.4-68.2,271-124.9c33.3-28.4,60.2-57.1,79.8-81.3c19.8-24.8,31.7-42.6,37.4-57.4l0.2-0.6l0.2-0.7
				c4.7-15.6,6.7-31.8,6.7-48.2c-0.2-54.4-20.5-111.3-42-159.4c-21.5-47.8-45.1-86.9-53-100.5c-8.3-14.7-9-17.9-13.2-34.2
				c-4-16.1-9.9-41.9-25.6-90.8c-9.2-27.9-32.6-44.9-57.8-55.2c-25.7-10.4-55.6-15-86.1-15c-53.2,0.5-108.7,13.2-144.4,48l18.1,18
				l-16.2-19.7c-68.8,56.2-121.2,82.6-190.7,82.8c-5.7,0-11.5-0.2-17.5-0.6l-1.6,25.5l7.4-24.4c-26.5-8.2-43.1-24-55-45.7
				c-11.7-21.7-17.2-49.5-17.1-76.8c0-23.7,4.1-47,10.4-64.5c5.9-17.7,15.4-28.7,17.8-29.4c25.2-14.2,41.9-18.6,70.4-27
				c28.3-8.3,65.9-19.8,125.6-47c52.7-23.9,83.4-68.2,99.9-113c16.6-45.1,20.5-91.8,20.5-127.6c0-21.1-1.4-38.5-2.6-49.5
				c-2.4-22.3-5.8-46.6-21.2-79.2c-15.3-32.7-41.6-74.7-90.4-141.2c-55.1-75.2-136.4-97.9-206.9-97.6c-68.6,0.2-129,19.7-160.9,34.9
				l11.1,23l-9.3-23.7C953.5,231,882.6,249.8,839,257.1c-15.1,2.5-24.8,3.2-35.2,3.3c-9.1,0-19-0.6-32.7-1.3
				c-13.6-0.7-30.7-1.4-53.8-1.4c-2.7,0-5.4,0-8.2,0h-0.3l-0.3,0c-0.6,0-2.1,0-4.1,0c-9.8,0-31.5-0.4-60-0.8
				c-28.5-0.4-64.1-0.8-102.5-0.8c-24.2,0-49.6,0.2-75,0.6l-1.6,0l-1.5,0.2C361.3,271,300.6,322.3,269,373.5
				c-31.9,51.4-36.9,100.2-37.2,117.5v0c0,0.2,0,0.4,0,0.6c0.1,19.9,7,36.3,19.5,63c12.8,27.2,33.1,67.1,64.9,135.3l0.2,0.5l0.2,0.4
				c39.2,75.9,52.8,127.5,52.6,157.2c-0.1,19.2-4.8,28-9.4,32.9c-4.6,4.9-11.5,8-22.3,8.8c-26.3,2.1-54.3,1.9-81.4,17.6
				c-13.3,7.9-25.1,20.3-33.2,36.2c-8.2,15.9-13.2,35.1-16,58.7l0,0c-4,35.1-6.5,64.2-6.5,89.9l0,0c-0.2,42.6,7.5,77.5,27.3,108.6
				l0,0c19,29.9,55.7,46.1,100.9,46c49.9-0.1,112.4-18.5,187.6-62.6l-12.9-22l7.1,24.5c13.2-3.9,24.2-5.4,32.8-5.4
				c17.4,0.4,24.3,4.9,30.3,12.2c6,7.5,10.5,21.6,10.4,41.3c0,17.4-3.4,38.6-10.2,61.1c-23.3,78.8-42.2,119.9-42.4,179
				c0,12.2,0.8,24.9,2.6,38.5c3.1,24.9,15.7,46,32.2,61.8c50,46.9,132.5,62.1,193.8,73.1c88.9,15,309.7,59.6,397.4,73.1
				L1161.3,1696.2L1161.3,1696.2L1161.3,1696.2z"/>
		</defs>
		<clipPath id="SVGID_4_">
			<use xlink:href="#SVGID_3_"  style="overflow:visible;"/>
		</clipPath>
	</g>
</g>
<g id="eight">
	<g>
		<path id="SVGID_5_" class="st2" d="M349.8,630.2c37.3,0,67.5,30.2,67.5,67.5s-30.2,67.5-67.5,67.5s-67.5-30.2-67.5-67.5
			C282.3,660.5,312.6,630.2,349.8,630.2L349.8,630.2z"/>
	</g>
	<g>
		<path id="SVGID_6_" class="st3" d="M349.8,765.2c37.3,0,67.5-30.2,67.5-67.5s-30.2-67.5-67.5-67.5s-67.5,30.2-67.5,67.5
			C282.3,735,312.6,765.2,349.8,765.2 M349.8,776.2c-43.3,0-78.5-35.2-78.5-78.5c0-43.3,35.2-78.5,78.5-78.5s78.5,35.2,78.5,78.5
			C428.3,741,393.1,776.2,349.8,776.2L349.8,776.2L349.8,776.2z"/>
	</g>
	<g>
		<path id="SVGID_7_" class="st3" d="M367.2,700.6c-1.6-2.3-4.2-4.1-7.7-5.5v-0.2c3-1.4,5.2-3,6.6-5s2.2-4.3,2.2-6.7
			c0-1.9-0.4-3.7-1.3-5.3s-2.1-3-3.7-4.2c-1.5-1.1-3.5-2-5.9-2.7c-2.4-0.7-5.2-1-8.5-1c-3.1,0-5.8,0.4-8.2,1.1
			c-2.4,0.8-4.5,1.8-6.1,3c-1.7,1.3-2.9,2.8-3.8,4.5c-0.8,1.7-1.3,3.5-1.3,5.4c0,2.6,0.6,5,1.8,7.1c1.2,2.1,3.4,4,6.4,5.5v0.2
			c-3.1,1.3-5.5,3-7.2,5s-2.5,4.5-2.5,7.5c0,2.1,0.4,4.1,1.2,5.9c0.8,1.9,2,3.5,3.7,4.9c1.7,1.4,3.9,2.5,6.5,3.3s5.7,1.2,9.3,1.2
			c3.3,0,6.2-0.4,8.8-1.2c2.6-0.8,4.7-1.9,6.5-3.3c1.8-1.4,3.1-3.1,4.1-5s1.4-4,1.4-6.3C369.6,705.6,368.8,702.8,367.2,700.6
			L367.2,700.6z M354.9,688.4c-0.4,1.1-1.1,2.3-2,3.5c-1.5-0.6-2.7-1-3.6-1.4s-1.7-0.7-2.3-1c-1.5-0.7-2.6-1.5-3.3-2.4
			c-0.7-0.8-1.1-2-1.1-3.4c0-1.4,0.6-2.6,1.8-3.5c1.2-1,2.7-1.4,4.7-1.4c2,0,3.6,0.5,4.8,1.6c1.2,1.1,1.8,2.5,1.8,4.3
			C355.6,686,355.4,687.3,354.9,688.4L354.9,688.4z M356,712.3c-0.5,0.7-1.1,1.4-1.8,1.9c-0.7,0.5-1.5,0.8-2.3,1
			c-0.9,0.2-1.7,0.3-2.3,0.3c-2.5,0-4.6-0.7-6.1-2.2c-1.6-1.5-2.3-3.4-2.3-5.8c0-1.6,0.4-3.1,1.1-4.5c0.7-1.3,1.5-2.5,2.4-3.4
			c1,0.4,2.1,0.9,3.4,1.4c1.3,0.5,2.3,0.9,2.9,1.2c2.4,1.2,4,2.2,4.7,3.1c0.7,0.9,1.1,2.2,1.1,3.9
			C356.7,710.6,356.4,711.6,356,712.3L356,712.3z"/>
	</g>
	<g>
		<defs>
			<path id="SVGID_8_" d="M349.8,630.2c37.3,0,67.5,30.2,67.5,67.5s-30.2,67.5-67.5,67.5s-67.5-30.2-67.5-67.5
				C282.3,660.5,312.6,630.2,349.8,630.2L349.8,630.2z"/>
		</defs>
		<clipPath id="SVGID_9_">
			<use xlink:href="#SVGID_8_"  style="overflow:visible;"/>
		</clipPath>
	</g>
	<g>
		<defs>
			<path id="SVGID_10_" d="M349.8,630.2c37.3,0,67.5,30.2,67.5,67.5s-30.2,67.5-67.5,67.5s-67.5-30.2-67.5-67.5
				C282.3,660.5,312.6,630.2,349.8,630.2L349.8,630.2z"/>
		</defs>
		<defs>
			<path id="SVGID_14_" d="M349.8,765.2c37.3,0,67.5-30.2,67.5-67.5s-30.2-67.5-67.5-67.5s-67.5,30.2-67.5,67.5
				C282.3,735,312.6,765.2,349.8,765.2 M349.8,776.2c-43.3,0-78.5-35.2-78.5-78.5c0-43.3,35.2-78.5,78.5-78.5s78.5,35.2,78.5,78.5
				C428.3,741,393.1,776.2,349.8,776.2L349.8,776.2L349.8,776.2z"/>
		</defs>
		<clipPath id="SVGID_15_">
			<use xlink:href="#SVGID_10_"  style="overflow:visible;"/>
		</clipPath>
		<clipPath id="SVGID_16_" class="st4">
			<use xlink:href="#SVGID_14_"  style="overflow:visible;"/>
		</clipPath>
	</g>
</g>
<g id="seven">
	<g>
		<path id="SVGID_11_" class="st2" d="M395.8,1144.2c37.3,0,67.5,30.2,67.5,67.5s-30.2,67.5-67.5,67.5s-67.5-30.2-67.5-67.5
			C328.3,1174.5,358.5,1144.2,395.8,1144.2L395.8,1144.2z"/>
	</g>
	<g>
		<path id="SVGID_12_" class="st3" d="M395.8,1279.2c37.3,0,67.5-30.2,67.5-67.5s-30.2-67.5-67.5-67.5s-67.5,30.2-67.5,67.5
			C328.3,1249,358.6,1279.2,395.8,1279.2 M395.8,1290.2c-43.3,0-78.5-35.2-78.5-78.5s35.2-78.5,78.5-78.5s78.5,35.2,78.5,78.5
			C474.3,1255,439.1,1290.2,395.8,1290.2L395.8,1290.2L395.8,1290.2z"/>
	</g>
	<g>
		<polygon id="SVGID_13_" class="st3" points="414.6,1185 376.1,1185 376.1,1194.9 401.1,1194.9 377.7,1237.4 392.3,1237.4 
			414.6,1195.4 		"/>
	</g>
	<g>
		<defs>
			<path id="SVGID_20_" d="M395.8,1144.2c37.3,0,67.5,30.2,67.5,67.5s-30.2,67.5-67.5,67.5s-67.5-30.2-67.5-67.5
				C328.3,1174.5,358.5,1144.2,395.8,1144.2L395.8,1144.2z"/>
		</defs>
		<clipPath id="SVGID_21_">
			<use xlink:href="#SVGID_20_"  style="overflow:visible;"/>
		</clipPath>
	</g>
	<g>
		<defs>
			<path id="SVGID_22_" d="M395.8,1144.2c37.3,0,67.5,30.2,67.5,67.5s-30.2,67.5-67.5,67.5s-67.5-30.2-67.5-67.5
				C328.3,1174.5,358.5,1144.2,395.8,1144.2L395.8,1144.2z"/>
		</defs>
		<defs>
			<path id="SVGID_26_" d="M395.8,1279.2c37.3,0,67.5-30.2,67.5-67.5s-30.2-67.5-67.5-67.5s-67.5,30.2-67.5,67.5
				C328.3,1249,358.6,1279.2,395.8,1279.2 M395.8,1290.2c-43.3,0-78.5-35.2-78.5-78.5s35.2-78.5,78.5-78.5s78.5,35.2,78.5,78.5
				C474.3,1255,439.1,1290.2,395.8,1290.2L395.8,1290.2L395.8,1290.2z"/>
		</defs>
		<clipPath id="SVGID_27_">
			<use xlink:href="#SVGID_22_"  style="overflow:visible;"/>
		</clipPath>
		<clipPath id="SVGID_28_" class="st5">
			<use xlink:href="#SVGID_26_"  style="overflow:visible;"/>
		</clipPath>
	</g>
</g>
<g id="six">
	<g>
		<path id="SVGID_17_" class="st2" d="M552.8,1445.2c37.3,0,67.5,30.2,67.5,67.5s-30.2,67.5-67.5,67.5c-37.3,0-67.5-30.2-67.5-67.5
			C485.3,1475.5,515.5,1445.2,552.8,1445.2L552.8,1445.2z"/>
	</g>
	<g>
		<path id="SVGID_18_" class="st3" d="M552.8,1580.2c37.3,0,67.5-30.2,67.5-67.5s-30.2-67.5-67.5-67.5c-37.3,0-67.5,30.2-67.5,67.5
			C485.3,1550,515.5,1580.2,552.8,1580.2 M552.8,1591.2c-43.3,0-78.5-35.2-78.5-78.5s35.2-78.5,78.5-78.5s78.5,35.2,78.5,78.5
			C631.3,1556,596.1,1591.2,552.8,1591.2L552.8,1591.2L552.8,1591.2z"/>
	</g>
	<g>
		<path id="SVGID_19_" class="st3" d="M570.9,1511.9c-1.1-2.3-2.5-4.1-4.3-5.4c-1.3-1-2.8-1.7-4.4-2.2c-1.7-0.5-3.4-0.8-5.3-0.8
			c-2.2,0-4.2,0.3-6,1c-1.8,0.7-3.5,1.5-5.2,2.6c0.5-4,1.9-7.1,4.1-9.3c2.2-2.2,5.4-3.2,9.5-3.2c1.8,0,3.4,0.2,4.8,0.6
			c1.4,0.4,2.4,0.7,3,1h1v-10.3c-0.6-0.1-1.8-0.3-3.5-0.5c-1.7-0.2-3.4-0.3-5.2-0.3c-4.7,0-8.8,0.7-12.2,2.2
			c-3.5,1.5-6.2,3.5-8.4,6.1c-2.2,2.7-3.8,5.9-4.8,9.5c-1,3.6-1.5,7.6-1.5,12.2c0,4.4,0.5,8.2,1.6,11.4c1.1,3.2,2.6,5.8,4.6,7.8
			c1.7,1.7,3.7,3,6.1,3.9c2.4,0.9,5.1,1.3,8.2,1.3c6.1,0,10.9-1.8,14.4-5.3c3.5-3.6,5.2-8.1,5.2-13.6
			C572.5,1517,571.9,1514.1,570.9,1511.9L570.9,1511.9z M555.1,1530c-0.8,0.3-1.6,0.5-2.3,0.5c-0.9,0-1.7-0.2-2.5-0.5
			c-0.8-0.3-1.5-0.9-2.1-1.6c-0.8-0.9-1.5-2.3-2-4.2c-0.5-1.8-0.8-4.2-0.8-7.2c0-0.8,0-1.5,0-2c0-0.5,0-0.9,0-1.2
			c0.8-0.3,1.8-0.6,2.7-0.9c1-0.2,1.9-0.3,2.8-0.3c1.1,0,2.1,0.1,3.1,0.4c1,0.2,1.9,0.7,2.6,1.3c0.8,0.7,1.4,1.5,1.8,2.6
			c0.4,1.1,0.6,2.5,0.6,4.2c0,2-0.2,3.5-0.5,4.5c-0.4,1-0.9,1.9-1.6,2.8C556.6,1529.1,555.9,1529.7,555.1,1530L555.1,1530z"/>
	</g>
	<g>
		<defs>
			<path id="SVGID_32_" d="M552.8,1445.2c37.3,0,67.5,30.2,67.5,67.5s-30.2,67.5-67.5,67.5c-37.3,0-67.5-30.2-67.5-67.5
				C485.3,1475.5,515.5,1445.2,552.8,1445.2L552.8,1445.2z"/>
		</defs>
		<clipPath id="SVGID_33_">
			<use xlink:href="#SVGID_32_"  style="overflow:visible;"/>
		</clipPath>
	</g>
	<g>
		<defs>
			<path id="SVGID_34_" d="M552.8,1445.2c37.3,0,67.5,30.2,67.5,67.5s-30.2,67.5-67.5,67.5c-37.3,0-67.5-30.2-67.5-67.5
				C485.3,1475.5,515.5,1445.2,552.8,1445.2L552.8,1445.2z"/>
		</defs>
		<defs>
			<path id="SVGID_38_" d="M552.8,1580.2c37.3,0,67.5-30.2,67.5-67.5s-30.2-67.5-67.5-67.5c-37.3,0-67.5,30.2-67.5,67.5
				C485.3,1550,515.5,1580.2,552.8,1580.2 M552.8,1591.2c-43.3,0-78.5-35.2-78.5-78.5s35.2-78.5,78.5-78.5s78.5,35.2,78.5,78.5
				C631.3,1556,596.1,1591.2,552.8,1591.2L552.8,1591.2L552.8,1591.2z"/>
		</defs>
		<clipPath id="SVGID_39_">
			<use xlink:href="#SVGID_34_"  style="overflow:visible;"/>
		</clipPath>
		<clipPath id="SVGID_40_" class="st6">
			<use xlink:href="#SVGID_38_"  style="overflow:visible;"/>
		</clipPath>
	</g>
</g>
<g id="five">
	<g>
		<path id="SVGID_23_" class="st2" d="M1103.8,1621.2c37.3,0,67.5,30.2,67.5,67.5s-30.2,67.5-67.5,67.5s-67.5-30.2-67.5-67.5
			C1036.3,1651.5,1066.5,1621.2,1103.8,1621.2L1103.8,1621.2z"/>
	</g>
	<g>
		<path id="SVGID_24_" class="st3" d="M1103.8,1756.2c37.3,0,67.5-30.2,67.5-67.5s-30.2-67.5-67.5-67.5s-67.5,30.2-67.5,67.5
			C1036.3,1726,1066.5,1756.2,1103.8,1756.2 M1103.8,1767.2c-43.3,0-78.5-35.2-78.5-78.5s35.2-78.5,78.5-78.5
			c43.3,0,78.5,35.2,78.5,78.5S1147.1,1767.2,1103.8,1767.2L1103.8,1767.2L1103.8,1767.2z"/>
	</g>
	<g>
		<path id="SVGID_25_" class="st3" d="M1120.9,1688.7c-1.1-2.2-2.7-3.9-4.6-5.2c-1.6-1.1-3.5-1.8-5.7-2.3c-2.1-0.5-4.5-0.8-7-0.8
			c-0.5,0-1.3,0-2.3,0.1c-1,0-1.8,0.1-2.5,0.1v-8.7h22.3v-9.9h-34.7v29.4h1.1c1.3-0.3,2.9-0.7,4.7-1c1.8-0.3,3.7-0.5,5.6-0.5
			c1.2,0,2.7,0.1,4.4,0.3c1.7,0.2,3.1,0.7,4.3,1.5c0.8,0.5,1.5,1.3,2,2.1c0.5,0.9,0.8,1.9,0.8,3.2c0,1.4-0.2,2.6-0.6,3.5
			s-0.9,1.7-1.7,2.3c-1,0.9-2.2,1.5-3.8,1.8c-1.6,0.3-3,0.5-4.4,0.5c-1.6,0-3-0.2-4.3-0.5c-1.3-0.3-2.5-0.7-3.8-1.2
			c-1.3-0.5-2.4-1-3.2-1.5c-0.8-0.5-1.6-0.9-2.2-1.3h-1.2v11.4c1.8,0.8,4.1,1.5,6.9,2.2c2.8,0.7,6.2,1,10,1c3.7,0,6.8-0.4,9.3-1.4
			c2.5-0.9,4.7-2.2,6.5-3.9c1.8-1.7,3.2-3.7,4.2-6c0.9-2.3,1.4-4.8,1.4-7.6C1122.6,1693.5,1122,1690.9,1120.9,1688.7L1120.9,1688.7z
			"/>
	</g>
	<g>
		<defs>
			<path id="SVGID_44_" d="M1103.8,1621.2c37.3,0,67.5,30.2,67.5,67.5s-30.2,67.5-67.5,67.5s-67.5-30.2-67.5-67.5
				C1036.3,1651.5,1066.5,1621.2,1103.8,1621.2L1103.8,1621.2z"/>
		</defs>
		<clipPath id="SVGID_45_">
			<use xlink:href="#SVGID_44_"  style="overflow:visible;"/>
		</clipPath>
	</g>
	<g>
		<defs>
			<path id="SVGID_46_" d="M1103.8,1621.2c37.3,0,67.5,30.2,67.5,67.5s-30.2,67.5-67.5,67.5s-67.5-30.2-67.5-67.5
				C1036.3,1651.5,1066.5,1621.2,1103.8,1621.2L1103.8,1621.2z"/>
		</defs>
		<defs>
			<path id="SVGID_51_" d="M1103.8,1756.2c37.3,0,67.5-30.2,67.5-67.5s-30.2-67.5-67.5-67.5s-67.5,30.2-67.5,67.5
				C1036.3,1726,1066.5,1756.2,1103.8,1756.2 M1103.8,1767.2c-43.3,0-78.5-35.2-78.5-78.5s35.2-78.5,78.5-78.5
				c43.3,0,78.5,35.2,78.5,78.5S1147.1,1767.2,1103.8,1767.2L1103.8,1767.2L1103.8,1767.2z"/>
		</defs>
		<clipPath id="SVGID_52_">
			<use xlink:href="#SVGID_46_"  style="overflow:visible;"/>
		</clipPath>
		<clipPath id="SVGID_53_" class="st7">
			<use xlink:href="#SVGID_51_"  style="overflow:visible;"/>
		</clipPath>
	</g>
</g>
<g id="four">
	<g>
		<path id="SVGID_29_" class="st2" d="M1779.8,1376.2c37.3,0,67.5,30.2,67.5,67.5s-30.2,67.5-67.5,67.5s-67.5-30.2-67.5-67.5
			C1712.3,1406.5,1742.5,1376.2,1779.8,1376.2L1779.8,1376.2z"/>
	</g>
	<g>
		<path id="SVGID_30_" class="st3" d="M1779.8,1511.2c37.3,0,67.5-30.2,67.5-67.5s-30.2-67.5-67.5-67.5s-67.5,30.2-67.5,67.5
			C1712.3,1481,1742.5,1511.2,1779.8,1511.2 M1779.8,1522.2c-43.3,0-78.5-35.2-78.5-78.5s35.2-78.5,78.5-78.5s78.5,35.2,78.5,78.5
			S1823.1,1522.2,1779.8,1522.2L1779.8,1522.2L1779.8,1522.2z"/>
	</g>
	<g>
		<path id="SVGID_31_" class="st3" d="M1800.4,1447.7h-7.1V1417h-13.1l-22.6,30.4v9.8h23v12.3h12.7v-12.3h7.1L1800.4,1447.7
			L1800.4,1447.7z M1767.4,1447.7l13.3-17.8v17.8H1767.4L1767.4,1447.7z"/>
	</g>
	<g>
		<defs>
			<path id="SVGID_54_" d="M1779.8,1376.2c37.3,0,67.5,30.2,67.5,67.5s-30.2,67.5-67.5,67.5s-67.5-30.2-67.5-67.5
				C1712.3,1406.5,1742.5,1376.2,1779.8,1376.2L1779.8,1376.2z"/>
		</defs>
		<clipPath id="SVGID_55_">
			<use xlink:href="#SVGID_54_"  style="overflow:visible;"/>
		</clipPath>
	</g>
	<g>
		<defs>
			<path id="SVGID_56_" d="M1779.8,1376.2c37.3,0,67.5,30.2,67.5,67.5s-30.2,67.5-67.5,67.5s-67.5-30.2-67.5-67.5
				C1712.3,1406.5,1742.5,1376.2,1779.8,1376.2L1779.8,1376.2z"/>
		</defs>
		<defs>
			<path id="SVGID_57_" d="M1779.8,1511.2c37.3,0,67.5-30.2,67.5-67.5s-30.2-67.5-67.5-67.5s-67.5,30.2-67.5,67.5
				C1712.3,1481,1742.5,1511.2,1779.8,1511.2 M1779.8,1522.2c-43.3,0-78.5-35.2-78.5-78.5s35.2-78.5,78.5-78.5s78.5,35.2,78.5,78.5
				S1823.1,1522.2,1779.8,1522.2L1779.8,1522.2L1779.8,1522.2z"/>
		</defs>
		<clipPath id="SVGID_58_">
			<use xlink:href="#SVGID_56_"  style="overflow:visible;"/>
		</clipPath>
		<clipPath id="SVGID_59_" class="st8">
			<use xlink:href="#SVGID_57_"  style="overflow:visible;"/>
		</clipPath>
	</g>
</g>
<g id="three">
	<g>
		<path id="SVGID_35_" class="st2" d="M1350.8,992.2c37.3,0,67.5,30.2,67.5,67.5s-30.2,67.5-67.5,67.5s-67.5-30.2-67.5-67.5
			C1283.3,1022.5,1313.5,992.2,1350.8,992.2L1350.8,992.2z"/>
	</g>
	<g>
		<path id="SVGID_36_" class="st3" d="M1350.8,1127.2c37.3,0,67.5-30.2,67.5-67.5s-30.2-67.5-67.5-67.5s-67.5,30.2-67.5,67.5
			C1283.3,1097,1313.5,1127.2,1350.8,1127.2 M1350.8,1138.2c-43.3,0-78.5-35.2-78.5-78.5c0-43.3,35.2-78.5,78.5-78.5
			s78.5,35.2,78.5,78.5C1429.3,1103,1394.1,1138.2,1350.8,1138.2L1350.8,1138.2L1350.8,1138.2z"/>
	</g>
	<g>
		<path id="SVGID_37_" class="st3" d="M1368.4,1064.3c-0.7-1.4-1.6-2.6-2.6-3.5c-1.1-1-2.3-1.7-3.5-2.2c-1.2-0.5-2.4-0.8-3.6-1v-0.5
			c2.8-0.7,5.1-2.1,6.8-4.3c1.7-2.2,2.6-4.8,2.6-7.8c0-2.1-0.4-4-1.3-5.8c-0.9-1.7-2.2-3.1-4-4.2c-1.6-1-3.6-1.8-5.9-2.4
			c-2.3-0.5-5-0.8-8.1-0.8c-3.2,0-6.3,0.4-9.4,1.1c-3.1,0.7-5.5,1.5-7.3,2.2v11.2h1.1c0.5-0.3,1.3-0.8,2.4-1.3s2.1-1.1,3.1-1.5
			c1.3-0.5,2.6-0.8,3.9-1.2c1.3-0.3,2.7-0.5,3.9-0.5c0.8,0,1.8,0.1,2.9,0.2c1.1,0.1,2.1,0.4,2.9,0.8c0.7,0.4,1.3,0.9,1.8,1.6
			c0.5,0.7,0.7,1.5,0.7,2.6c0,1.4-0.3,2.4-0.8,3.2c-0.5,0.8-1.3,1.4-2.2,1.9c-0.9,0.4-2.1,0.7-3.4,0.8c-1.3,0.1-2.8,0.2-4.4,0.2
			h-2.1v9.2h2.3c1.2,0,2.6,0,4.2,0.1c1.6,0,2.9,0.3,4,0.7c1.1,0.4,2,1,2.7,1.8c0.7,0.8,1,2,1,3.6c0,1.6-0.2,2.8-0.7,3.6
			s-1.1,1.6-1.9,2.2c-1,0.8-2.3,1.2-3.8,1.5c-1.5,0.2-2.9,0.3-4.1,0.3c-2.1,0-4.5-0.4-7.1-1.3c-2.6-0.9-4.8-1.9-6.8-3.2h-1.3v11.4
			c1.8,0.8,4.2,1.6,7.1,2.3c2.9,0.7,6.4,1,10.5,1c3.6,0,6.6-0.4,9.1-1.2c2.5-0.8,4.7-1.9,6.5-3.4c1.8-1.5,3.2-3.3,4.2-5.4
			c0.9-2.1,1.4-4.4,1.4-7C1369.5,1067.5,1369.1,1065.8,1368.4,1064.3L1368.4,1064.3z"/>
	</g>
	<g>
		<defs>
			<path id="SVGID_60_" d="M1350.8,992.2c37.3,0,67.5,30.2,67.5,67.5s-30.2,67.5-67.5,67.5s-67.5-30.2-67.5-67.5
				C1283.3,1022.5,1313.5,992.2,1350.8,992.2L1350.8,992.2z"/>
		</defs>
		<clipPath id="SVGID_61_">
			<use xlink:href="#SVGID_60_"  style="overflow:visible;"/>
		</clipPath>
	</g>
	<g>
		<defs>
			<path id="SVGID_62_" d="M1350.8,992.2c37.3,0,67.5,30.2,67.5,67.5s-30.2,67.5-67.5,67.5s-67.5-30.2-67.5-67.5
				C1283.3,1022.5,1313.5,992.2,1350.8,992.2L1350.8,992.2z"/>
		</defs>
		<defs>
			<path id="SVGID_63_" d="M1350.8,1127.2c37.3,0,67.5-30.2,67.5-67.5s-30.2-67.5-67.5-67.5s-67.5,30.2-67.5,67.5
				C1283.3,1097,1313.5,1127.2,1350.8,1127.2 M1350.8,1138.2c-43.3,0-78.5-35.2-78.5-78.5c0-43.3,35.2-78.5,78.5-78.5
				s78.5,35.2,78.5,78.5C1429.3,1103,1394.1,1138.2,1350.8,1138.2L1350.8,1138.2L1350.8,1138.2z"/>
		</defs>
		<clipPath id="SVGID_64_">
			<use xlink:href="#SVGID_62_"  style="overflow:visible;"/>
		</clipPath>
		<clipPath id="SVGID_65_" class="st9">
			<use xlink:href="#SVGID_63_"  style="overflow:visible;"/>
		</clipPath>
	</g>
</g>
<g id="two">
	<g>
		<path id="SVGID_41_" class="st2" d="M1392.8,647.2c37.3,0,67.5,30.2,67.5,67.5s-30.2,67.5-67.5,67.5s-67.5-30.2-67.5-67.5
			C1325.3,677.5,1355.6,647.2,1392.8,647.2L1392.8,647.2z"/>
	</g>
	<g>
		<path id="SVGID_42_" class="st3" d="M1392.8,782.2c37.3,0,67.5-30.2,67.5-67.5s-30.2-67.5-67.5-67.5s-67.5,30.2-67.5,67.5
			S1355.6,782.2,1392.8,782.2 M1392.8,793.2c-43.3,0-78.5-35.2-78.5-78.5s35.2-78.5,78.5-78.5c43.3,0,78.5,35.2,78.5,78.5
			C1471.3,758,1436.1,793.2,1392.8,793.2L1392.8,793.2L1392.8,793.2z"/>
	</g>
	<g>
		<path id="SVGID_43_" class="st3" d="M1411.8,731.5h-22.2c0.9-0.7,2.3-1.8,4.3-3.5s4-3.5,6.2-5.6c3.4-3.4,5.8-6.6,7.2-9.5
			c1.4-3,2.2-6,2.2-9.1c0-5-1.6-8.9-4.8-11.7c-3.2-2.8-7.9-4.2-14.1-4.2c-2.9,0-5.9,0.4-9.1,1.1c-3.1,0.7-5.4,1.5-6.9,2.2v11.4h1
			c0.4-0.3,1.1-0.7,1.9-1.3c0.8-0.6,1.9-1.1,3.1-1.7c1.2-0.5,2.4-0.9,3.6-1.3c1.2-0.3,2.4-0.5,3.8-0.5c2.6,0,4.6,0.7,6.1,2
			s2.2,3.2,2.2,5.6c0,2.2-0.6,4.3-1.7,6.3s-3,4.4-5.6,7.1c-2,2.1-4.3,4.2-6.8,6.5s-5.5,4.7-8.8,7.3v8.5h38.5L1411.8,731.5
			L1411.8,731.5z"/>
	</g>
	<g>
		<defs>
			<path id="SVGID_66_" d="M1392.8,647.2c37.3,0,67.5,30.2,67.5,67.5s-30.2,67.5-67.5,67.5s-67.5-30.2-67.5-67.5
				C1325.3,677.5,1355.6,647.2,1392.8,647.2L1392.8,647.2z"/>
		</defs>
		<clipPath id="SVGID_67_">
			<use xlink:href="#SVGID_66_"  style="overflow:visible;"/>
		</clipPath>
	</g>
	<g>
		<defs>
			<path id="SVGID_68_" d="M1392.8,647.2c37.3,0,67.5,30.2,67.5,67.5s-30.2,67.5-67.5,67.5s-67.5-30.2-67.5-67.5
				C1325.3,677.5,1355.6,647.2,1392.8,647.2L1392.8,647.2z"/>
		</defs>
		<defs>
			<path id="SVGID_69_" d="M1392.8,782.2c37.3,0,67.5-30.2,67.5-67.5s-30.2-67.5-67.5-67.5s-67.5,30.2-67.5,67.5
				S1355.6,782.2,1392.8,782.2 M1392.8,793.2c-43.3,0-78.5-35.2-78.5-78.5s35.2-78.5,78.5-78.5c43.3,0,78.5,35.2,78.5,78.5
				C1471.3,758,1436.1,793.2,1392.8,793.2L1392.8,793.2L1392.8,793.2z"/>
		</defs>
		<clipPath id="SVGID_70_">
			<use xlink:href="#SVGID_68_"  style="overflow:visible;"/>
		</clipPath>
		<clipPath id="SVGID_71_" class="st10">
			<use xlink:href="#SVGID_69_"  style="overflow:visible;"/>
		</clipPath>
	</g>
</g>
<g id="one">
	<g>
		<path id="SVGID_47_" class="st3" d="M1195.8,287.2c37.3,0,67.5-30.2,67.5-67.5s-30.2-67.5-67.5-67.5s-67.5,30.2-67.5,67.5
			C1128.3,257,1158.5,287.2,1195.8,287.2"/>
	</g>
	<g>
		<path id="SVGID_48_" class="st3" d="M1195.8,298.2c-43.3,0-78.5-35.2-78.5-78.5s35.2-78.5,78.5-78.5s78.5,35.2,78.5,78.5
			S1239.1,298.2,1195.8,298.2L1195.8,298.2L1195.8,298.2z"/>
	</g>
	<g>
		<path id="SVGID_49_" class="st2" d="M1195.8,152.2c37.3,0,67.5,30.2,67.5,67.5s-30.2,67.5-67.5,67.5s-67.5-30.2-67.5-67.5
			S1158.5,152.2,1195.8,152.2L1195.8,152.2z"/>
	</g>
	<g>
		<path id="SVGID_50_" class="st3" d="M1212.5,236.2h-10.8v-43.4h-11.5c-0.1,1.4-0.4,2.6-1.1,3.5s-1.5,1.7-2.6,2.3
			c-1,0.5-2.2,0.8-3.8,1c-1.6,0.2-3.2,0.3-4.8,0.3v8.5h11v27.7h-11v9.1h34.6L1212.5,236.2L1212.5,236.2z"/>
	</g>
	<g>
		<defs>
			<path id="SVGID_72_" d="M1195.8,287.2c37.3,0,67.5-30.2,67.5-67.5s-30.2-67.5-67.5-67.5s-67.5,30.2-67.5,67.5
				C1128.3,257,1158.5,287.2,1195.8,287.2"/>
		</defs>
		<clipPath id="SVGID_73_">
			<use xlink:href="#SVGID_72_"  style="overflow:visible;"/>
		</clipPath>
	</g>
	<g>
		<defs>
			<path id="SVGID_74_" d="M1195.8,287.2c37.3,0,67.5-30.2,67.5-67.5s-30.2-67.5-67.5-67.5s-67.5,30.2-67.5,67.5
				C1128.3,257,1158.5,287.2,1195.8,287.2"/>
		</defs>
		<defs>
			<path id="SVGID_75_" d="M1195.8,298.2c-43.3,0-78.5-35.2-78.5-78.5s35.2-78.5,78.5-78.5s78.5,35.2,78.5,78.5
				S1239.1,298.2,1195.8,298.2L1195.8,298.2L1195.8,298.2z"/>
		</defs>
		<clipPath id="SVGID_76_">
			<use xlink:href="#SVGID_74_"  style="overflow:visible;"/>
		</clipPath>
		<clipPath id="SVGID_77_" class="st11">
			<use xlink:href="#SVGID_75_"  style="overflow:visible;"/>
		</clipPath>
	</g>
	<g>
		<defs>
			<path id="SVGID_78_" d="M1195.8,287.2c37.3,0,67.5-30.2,67.5-67.5s-30.2-67.5-67.5-67.5s-67.5,30.2-67.5,67.5
				C1128.3,257,1158.5,287.2,1195.8,287.2"/>
		</defs>
		<defs>
			<path id="SVGID_79_" d="M1195.8,298.2c-43.3,0-78.5-35.2-78.5-78.5s35.2-78.5,78.5-78.5s78.5,35.2,78.5,78.5
				S1239.1,298.2,1195.8,298.2L1195.8,298.2L1195.8,298.2z"/>
		</defs>
		<defs>
			<path id="SVGID_80_" d="M1195.8,152.2c37.3,0,67.5,30.2,67.5,67.5s-30.2,67.5-67.5,67.5s-67.5-30.2-67.5-67.5
				S1158.5,152.2,1195.8,152.2L1195.8,152.2z"/>
		</defs>
		<clipPath id="SVGID_81_">
			<use xlink:href="#SVGID_78_"  style="overflow:visible;"/>
		</clipPath>
		<clipPath id="SVGID_82_" class="st12">
			<use xlink:href="#SVGID_79_"  style="overflow:visible;"/>
		</clipPath>
		<clipPath id="SVGID_83_" class="st13">
			<use xlink:href="#SVGID_80_"  style="overflow:visible;"/>
		</clipPath>
	</g>
</g>
<g id="start1">
	<path class="st14" d="M833.8,181.2c-55.5,0-100.7,45.2-100.7,100.7c0,55.5,45.2,100.7,100.7,100.7c55.5,0,100.7-45.2,100.7-100.7
		C934.6,226.3,889.4,181.2,833.8,181.2z M833.8,368.4c-47.8,0-86.6-38.8-86.6-86.6c0-47.8,38.8-86.6,86.6-86.6
		c47.8,0,86.6,38.8,86.6,86.6C920.4,329.7,881.7,368.4,833.8,368.4z"/>
	<g class="st15">
		<defs>
			<path id="SVGID_84_" class="st15" d="M833.8,368.4c47.8,0,86.6-38.8,86.6-86.6s-38.8-86.6-86.6-86.6c-47.8,0-86.6,38.8-86.6,86.6
				C747.3,329.7,786,368.4,833.8,368.4"/>
		</defs>
		<use xlink:href="#SVGID_84_"  style="overflow:visible;fill:#55F739;"/>
		<clipPath id="SVGID_85_">
			<use xlink:href="#SVGID_84_"  style="overflow:visible;"/>
		</clipPath>
	</g>
	<g>
		<path class="st14" d="M790,283.3c0,2.7-1.1,4.9-3.4,6.6c-2.3,1.7-5.4,2.5-9.3,2.5c-2.3,0-4.2-0.2-5.9-0.6
			c-1.7-0.4-3.3-0.9-4.7-1.5v-6.6h0.8c1.5,1.2,3.1,2.1,4.9,2.7c1.8,0.6,3.5,0.9,5.2,0.9c0.4,0,1,0,1.7-0.1c0.7-0.1,1.3-0.2,1.7-0.4
			c0.5-0.2,1-0.5,1.3-0.8c0.3-0.3,0.5-0.8,0.5-1.5c0-0.6-0.3-1.1-0.8-1.6c-0.5-0.4-1.3-0.8-2.2-1c-1-0.2-2.1-0.5-3.3-0.7
			c-1.1-0.2-2.2-0.5-3.2-0.8c-2.3-0.7-4-1.8-5-3c-1-1.3-1.5-2.9-1.5-4.8c0-2.6,1.1-4.6,3.4-6.2c2.3-1.6,5.2-2.4,8.8-2.4
			c1.8,0,3.6,0.2,5.3,0.5c1.8,0.3,3.3,0.8,4.6,1.3v6.3h-0.8c-1.1-0.9-2.5-1.6-4.1-2.2c-1.6-0.6-3.2-0.9-4.9-0.9
			c-0.6,0-1.2,0-1.8,0.1c-0.6,0.1-1.1,0.2-1.7,0.5c-0.5,0.2-0.9,0.5-1.2,0.8c-0.3,0.4-0.5,0.8-0.5,1.3c0,0.7,0.3,1.3,0.8,1.7
			c0.6,0.4,1.6,0.7,3.1,1.1c1,0.2,2,0.4,2.9,0.6c0.9,0.2,1.9,0.5,3,0.8c2.1,0.7,3.6,1.6,4.6,2.8C789.5,279.9,790,281.5,790,283.3z"
			/>
		<path class="st14" d="M816.3,269.9h-8.6V292h-7.1v-22.1h-8.6v-5.3h24.2V269.9z"/>
		<path class="st14" d="M845.8,292h-7.3l-1.9-5.5h-10.1l-1.9,5.5h-7.1l10.1-27.4h8.1L845.8,292z M834.9,281.4l-3.4-9.8l-3.4,9.8
			H834.9z"/>
		<path class="st14" d="M876.2,292h-8.6l-7.5-10.1h-3.3V292h-7v-27.4h11.9c1.6,0,3,0.1,4.2,0.3c1.2,0.2,2.3,0.6,3.3,1.2
			c1,0.6,1.8,1.4,2.5,2.4s0.9,2.2,0.9,3.7c0,2-0.5,3.7-1.4,5c-0.9,1.3-2.3,2.3-4,3.2L876.2,292z M865.2,272.9c0-0.7-0.1-1.3-0.4-1.8
			s-0.8-0.9-1.5-1.2c-0.5-0.2-1-0.3-1.7-0.4c-0.6,0-1.4-0.1-2.2-0.1h-2.6v7.4h2.2c1.1,0,2.1-0.1,2.8-0.2s1.4-0.4,1.9-0.8
			c0.5-0.4,0.8-0.8,1.1-1.3C865,274.3,865.2,273.7,865.2,272.9z"/>
		<path class="st14" d="M900.7,269.9h-8.6V292h-7.1v-22.1h-8.6v-5.3h24.2V269.9z"/>
	</g>
</g>
<g id="start2">
	<path class="st14" d="M1293.8,1610.2c-55.5,0-100.7,45.2-100.7,100.7c0,55.5,45.2,100.7,100.7,100.7s100.7-45.2,100.7-100.7
		C1394.6,1655.3,1349.4,1610.2,1293.8,1610.2z M1293.8,1797.4c-47.8,0-86.6-38.8-86.6-86.6c0-47.8,38.8-86.6,86.6-86.6
		s86.6,38.8,86.6,86.6C1380.4,1758.7,1341.7,1797.4,1293.8,1797.4z"/>
	<g class="st15">
		<defs>
			<path id="SVGID_86_" class="st15" d="M1293.8,1797.4c47.8,0,86.6-38.8,86.6-86.6c0-47.8-38.8-86.6-86.6-86.6
				s-86.6,38.8-86.6,86.6C1207.3,1758.7,1246,1797.4,1293.8,1797.4"/>
		</defs>
		<use xlink:href="#SVGID_86_"  style="overflow:visible;fill:#55F739;"/>
		<clipPath id="SVGID_87_">
			<use xlink:href="#SVGID_86_"  style="overflow:visible;"/>
		</clipPath>
	</g>
	<g>
		<path class="st14" d="M1250,1712.3c0,2.7-1.1,4.9-3.4,6.6c-2.3,1.7-5.4,2.5-9.3,2.5c-2.3,0-4.3-0.2-5.9-0.6
			c-1.7-0.4-3.3-0.9-4.7-1.5v-6.6h0.8c1.5,1.2,3.1,2.1,4.9,2.7c1.8,0.6,3.5,0.9,5.2,0.9c0.4,0,1,0,1.7-0.1s1.3-0.2,1.7-0.4
			c0.5-0.2,1-0.5,1.3-0.8c0.3-0.3,0.5-0.8,0.5-1.5c0-0.6-0.3-1.1-0.8-1.6s-1.3-0.8-2.2-1c-1-0.2-2.1-0.5-3.3-0.7
			c-1.1-0.2-2.2-0.5-3.2-0.8c-2.3-0.7-4-1.8-5-3c-1-1.3-1.5-2.9-1.5-4.8c0-2.6,1.1-4.6,3.4-6.2s5.2-2.4,8.8-2.4
			c1.8,0,3.6,0.2,5.3,0.5c1.8,0.3,3.3,0.8,4.6,1.3v6.3h-0.8c-1.1-0.9-2.5-1.6-4.1-2.2c-1.6-0.6-3.2-0.9-4.9-0.9
			c-0.6,0-1.2,0-1.8,0.1c-0.6,0.1-1.1,0.2-1.7,0.5c-0.5,0.2-0.9,0.5-1.2,0.8c-0.3,0.4-0.5,0.8-0.5,1.3c0,0.7,0.3,1.3,0.8,1.7
			c0.6,0.4,1.6,0.7,3.1,1.1c1,0.2,2,0.4,2.9,0.6c0.9,0.2,1.9,0.5,3,0.8c2.1,0.7,3.6,1.6,4.6,2.8
			C1249.5,1708.9,1250,1710.5,1250,1712.3z"/>
		<path class="st14" d="M1276.3,1698.9h-8.6v22.1h-7.1v-22.1h-8.6v-5.3h24.2V1698.9z"/>
		<path class="st14" d="M1305.8,1721h-7.3l-1.9-5.5h-10.1l-1.9,5.5h-7.1l10.1-27.4h8.1L1305.8,1721z M1294.9,1710.4l-3.4-9.8
			l-3.4,9.8H1294.9z"/>
		<path class="st14" d="M1336.2,1721h-8.6l-7.5-10.1h-3.3v10.1h-7v-27.4h11.9c1.6,0,3,0.1,4.2,0.3c1.2,0.2,2.3,0.6,3.3,1.2
			c1,0.6,1.8,1.4,2.5,2.4s0.9,2.2,0.9,3.7c0,2-0.5,3.7-1.4,5c-0.9,1.3-2.3,2.3-4,3.2L1336.2,1721z M1325.2,1701.9
			c0-0.7-0.1-1.3-0.4-1.8c-0.3-0.5-0.8-0.9-1.5-1.2c-0.5-0.2-1-0.3-1.7-0.4c-0.6,0-1.4-0.1-2.2-0.1h-2.6v7.4h2.2
			c1.1,0,2.1-0.1,2.8-0.2c0.8-0.1,1.4-0.4,1.9-0.8c0.5-0.4,0.8-0.8,1.1-1.3C1325,1703.3,1325.2,1702.7,1325.2,1701.9z"/>
		<path class="st14" d="M1360.7,1698.9h-8.6v22.1h-7.1v-22.1h-8.6v-5.3h24.2V1698.9z"/>
	</g>
</g>
<g id="start3">
	<path class="st14" d="M342.6,776.2c-55.5,0-100.7,45.2-100.7,100.7c0,55.5,45.2,100.7,100.7,100.7c55.5,0,100.7-45.2,100.7-100.7
		C443.3,821.4,398.1,776.2,342.6,776.2z M342.6,963.5c-47.8,0-86.6-38.8-86.6-86.6c0-47.8,38.8-86.6,86.6-86.6
		c47.8,0,86.6,38.8,86.6,86.6C429.2,924.8,390.4,963.5,342.6,963.5z"/>
	<g class="st15">
		<defs>
			<path id="SVGID_88_" class="st15" d="M342.6,963.5c47.8,0,86.6-38.8,86.6-86.6s-38.8-86.6-86.6-86.6S256,829.1,256,876.9
				C256,924.8,294.8,963.5,342.6,963.5"/>
		</defs>
		<use xlink:href="#SVGID_88_"  style="overflow:visible;fill:#55F739;"/>
		<clipPath id="SVGID_89_">
			<use xlink:href="#SVGID_88_"  style="overflow:visible;"/>
		</clipPath>
	</g>
	<g>
		<path class="st14" d="M298.7,878.4c0,2.7-1.1,4.9-3.4,6.6c-2.3,1.7-5.4,2.5-9.3,2.5c-2.3,0-4.2-0.2-5.9-0.6
			c-1.7-0.4-3.3-0.9-4.7-1.5v-6.6h0.8c1.5,1.2,3.1,2.1,4.9,2.7c1.8,0.6,3.5,0.9,5.2,0.9c0.4,0,1,0,1.7-0.1c0.7-0.1,1.3-0.2,1.7-0.4
			c0.5-0.2,1-0.5,1.3-0.8c0.3-0.3,0.5-0.8,0.5-1.5c0-0.6-0.3-1.1-0.8-1.6c-0.5-0.4-1.3-0.8-2.2-1c-1-0.2-2.1-0.5-3.3-0.7
			s-2.2-0.5-3.2-0.8c-2.3-0.7-4-1.8-5-3c-1-1.3-1.5-2.9-1.5-4.8c0-2.6,1.1-4.6,3.4-6.3c2.3-1.6,5.2-2.4,8.8-2.4
			c1.8,0,3.6,0.2,5.3,0.5c1.8,0.3,3.3,0.8,4.6,1.3v6.3h-0.8c-1.1-0.9-2.5-1.6-4.1-2.2c-1.6-0.6-3.2-0.9-4.9-0.9
			c-0.6,0-1.2,0-1.8,0.1c-0.6,0.1-1.1,0.2-1.7,0.5c-0.5,0.2-0.9,0.5-1.2,0.8c-0.3,0.4-0.5,0.8-0.5,1.3c0,0.7,0.3,1.3,0.8,1.7
			s1.6,0.7,3.1,1.1c1,0.2,2,0.4,2.9,0.6c0.9,0.2,1.9,0.5,3,0.8c2.1,0.7,3.6,1.6,4.6,2.8C298.2,875,298.7,876.5,298.7,878.4z"/>
		<path class="st14" d="M325,864.9h-8.6V887h-7.1v-22.1h-8.6v-5.3H325V864.9z"/>
		<path class="st14" d="M354.6,887h-7.3l-1.9-5.5h-10.1l-1.9,5.5h-7.1l10.1-27.4h8.1L354.6,887z M343.7,876.5l-3.4-9.8l-3.4,9.8
			H343.7z"/>
		<path class="st14" d="M384.9,887h-8.6l-7.5-10h-3.3v10h-7v-27.4h11.9c1.6,0,3,0.1,4.2,0.3c1.2,0.2,2.3,0.6,3.3,1.2
			c1,0.6,1.8,1.4,2.5,2.4s0.9,2.2,0.9,3.7c0,2-0.5,3.7-1.4,5c-0.9,1.3-2.3,2.3-4,3.2L384.9,887z M373.9,868c0-0.7-0.1-1.3-0.4-1.8
			c-0.3-0.5-0.8-0.9-1.5-1.2c-0.5-0.2-1-0.3-1.7-0.4c-0.6,0-1.4-0.1-2.2-0.1h-2.6v7.4h2.2c1.1,0,2.1-0.1,2.8-0.2s1.4-0.4,1.9-0.8
			c0.5-0.4,0.8-0.8,1.1-1.3S373.9,868.8,373.9,868z"/>
		<path class="st14" d="M409.5,864.9h-8.6V887h-7.1v-22.1h-8.6v-5.3h24.2V864.9z"/>
	</g>
</g>
<g id="finish">
	<polygon class="st0" points="633.2,149.4 721.2,149.4 721.2,414.3 633.2,414.3 	"/>
	<rect x="636.2" y="152.4" class="st16" width="81.9" height="259"/>
	<g>
		<rect x="677.7" y="192.7" width="41.9" height="44"/>
		<path class="st0" d="M718.2,194.2v41h-38.9v-41H718.2 M721.2,191.2h-3h-38.9h-3v3v41v3h3h38.9h3v-3v-41V191.2L721.2,191.2z"/>
	</g>
	<g>
		<rect x="634.9" y="150.9" width="41.8" height="41.8"/>
		<path class="st0" d="M675.2,152.4v38.8h-38.8v-38.8H675.2 M678.2,149.4h-3h-38.8h-3v3v38.8v3h3h38.8h3v-3v-38.8V149.4L678.2,149.4
			z"/>
	</g>
	<g>
		<rect x="634.7" y="236.7" width="41.9" height="44"/>
		<path class="st0" d="M675.2,238.2v41h-38.9v-41H675.2 M678.2,235.2h-3h-38.9h-3v3v41v3h3h38.9h3v-3v-41V235.2L678.2,235.2z"/>
	</g>
	<g>
		<rect x="634.7" y="324.8" width="41.9" height="44"/>
		<path class="st0" d="M675.2,326.3v41h-38.9v-41H675.2 M678.2,323.3h-3h-38.9h-3v3v41v3h3h38.9h3v-3v-41V323.3L678.2,323.3z"/>
	</g>
	<g>
		<rect x="677.7" y="280.8" width="41.9" height="44"/>
		<path class="st0" d="M718.2,282.3v41h-38.9v-41H718.2 M721.2,279.3h-3h-38.9h-3v3v41v3h3h38.9h3v-3v-41V279.3L721.2,279.3z"/>
	</g>
	<g>
		<rect x="677.7" y="368.8" width="41.9" height="44"/>
		<path class="st0" d="M718.2,370.3v41h-38.9v-41H718.2 M721.2,367.3h-3h-38.9h-3v3v41v3h3h38.9h3v-3v-41V367.3L721.2,367.3z"/>
	</g>
</g>
</svg>
